<?xml version="1.0" standalone="no"?>
<!DOCTYPE svg PUBLIC "-//W3C//DTD SVG 20010904//EN"
 "http://www.w3.org/TR/2001/REC-SVG-20010904/DTD/svg10.dtd">
<svg version="1.0" xmlns="http://www.w3.org/2000/svg"
 width="3333.000000pt" height="2940.000000pt" viewBox="0 0 3333.000000 2940.000000"
 preserveAspectRatio="xMidYMid meet">

<g transform="translate(0.000000,2940.000000) scale(0.100000,-0.100000)"
fill="#000000" stroke="none">
<path d="M15690 26543 l0 -2858 -2381 -2210 c-1309 -1215 -2384 -2210 -2390
-2210 -5 0 -267 239 -582 531 -315 292 -1283 1191 -2151 1998 l-1579 1466
-3303 0 -3304 0 0 -8360 0 -8360 3158 1 3157 0 1840 1710 c1012 940 1844 1708
1851 1707 6 -2 1269 -1171 2806 -2600 l2796 -2596 6 -574 c3 -315 8 -1093 11
-1728 3 -635 8 -1449 11 -1807 l7 -653 2101 0 2101 1 4282 3977 c2354 2187
5388 5005 6742 6262 l2460 2285 1 2675 0 2675 -2762 2565 c-1519 1411 -4311
4004 -6205 5763 l-3443 3197 -2615 0 -2615 0 0 -2857z m8675 -7413 c370 -43
734 -196 1019 -429 156 -128 329 -326 430 -492 417 -688 377 -1540 -103 -2189
-71 -95 -234 -264 -331 -343 -706 -570 -1701 -582 -2425 -28 -143 109 -317
295 -426 457 -476 705 -430 1659 110 2318 78 94 248 258 341 327 271 203 612
339 943 378 104 12 338 12 442 1z"/>
</g>
</svg>
